<?xml version="1.0" standalone="no"?><!DOCTYPE svg PUBLIC "-//W3C//DTD SVG 1.1//EN" "http://www.w3.org/Graphics/SVG/1.1/DTD/svg11.dtd"><svg t="1500555808921" class="icon" style="" viewBox="0 0 1024 1024" version="1.1" xmlns="http://www.w3.org/2000/svg" p-id="747" xmlns:xlink="http://www.w3.org/1999/xlink" width="64" height="64"><defs><style type="text/css">html, * { user-select: text !important; }
</style></defs><path d="M586.794 664.659c0 0-74.776 59.848-101.983 75.529-23.917 13.776-46.362 22.93-66.341 29.295-20.014 6.348-37.549 10.342-52.602 11.996s-27.514 2.697-37.404 3.182c-0.936 0.45-2.122 0.701-3.525 0.701h-11.295c-25.877 0-50.227-3.055-73.048-9.188-22.838-6.115-42.71-15.177-59.65-27.174-16.94-11.995-30.357-27.065-40.228-45.175-9.872-18.127-14.818-39.187-14.818-63.175 0.468-20.699 6.114-39.529 16.922-56.468 10.844-16.94 24.835-31.291 42.009-43.070s36.236-20.699 57.187-26.831c20.934-6.114 41.991-8.686 63.176-7.75 20.699 0.935 40.696 3.399 59.994 7.392 19.296 4.009 37.783 8.83 55.409 14.477 17.642 5.647 34.348 11.76 50.119 18.361 15.771 6.599 30.698 12.948 44.814 19.063 5.646 2.355 11.527 4.713 17.641 7.067 6.115 2.355 12.463 4.712 19.064 7.067 13.649-17.408 25.159-34.457 34.581-51.181 9.406-16.707 17.174-31.991 23.289-45.876 6.133-13.884 10.843-25.518 14.136-34.941 3.291-9.406 5.394-15.987 6.348-19.764h-306.368v-33.881h144.714v-78.335h-201.182v-33.881h201.181v-63.535c0-4.226 2.338-7.644 7.050-10.233 4.711-2.59 10.125-4.353 16.239-5.287 7.067-1.42 15.053-2.121 23.989-2.121h54.345v81.176h206.809v33.881h-206.809v78.335h164.35c0.035-0.233 0.072-0.468 0.107-0.7v0.7h-0.107c-3.327 20.969-8.919 43.088-16.832 66.359-6.582 20.232-16.347 43.287-29.296 69.164-12.947 25.877-29.996 52.475-51.18 79.774 0 0 161.995 77.492 332.997 104.772 28.396-62.977 44.22-132.88 44.22-206.45 0.001-277.683-225.133-502.8-502.816-502.8-277.7 0-502.817 225.117-502.817 502.798 0 277.682 225.117 502.818 502.817 502.818 172.245 0 324.259-86.627 414.878-218.68-92.075-20.068-189.887-60.694-340.084-127.412v0 0zM191.518 642.071c-1.888 86.284 95.726 92.686 110.778 93.153 49.76 1.528 89.935-17.265 121.209-35.842 31.29-18.595 82.327-66.593 84.234-68.248 1.87-1.655 3.758-3.399 5.63-5.287-13.649-7.535-27.064-14.477-40.228-20.825-13.163-6.348-80.115-42.315-139.515-48.447-112.486-11.671-141.529 59.257-142.105 85.496v0 0z" p-id="748" fill="#FF8100"></path></svg>