<?xml version="1.0" standalone="no"?><!DOCTYPE svg PUBLIC "-//W3C//DTD SVG 1.1//EN" "http://www.w3.org/Graphics/SVG/1.1/DTD/svg11.dtd"><svg t="1500557107109" class="icon" style="" viewBox="0 0 1024 1024" version="1.1" xmlns="http://www.w3.org/2000/svg" p-id="1109" xmlns:xlink="http://www.w3.org/1999/xlink" width="64" height="64"><defs><style type="text/css">html, * { user-select: text !important; }
</style></defs><path d="M510.943-18.030c281.79 0 510.227 232.784 510.227 519.943 0 287.15-228.438 519.934-510.227 519.934-281.801 0-510.239-232.784-510.239-519.934 0-287.161 228.438-519.943 510.239-519.943v0zM250.848 493.373h32.483c1.751-4.479 8.779-44.73 11.411-55.471 0.87-4.467 0-4.467 4.384-6.263 25.457-9.833 3.514 34 0.882 61.735h31.603l3.514-16.107c5.264-30.418 22.823-68.885-5.264-71.568-13.174-0.898-21.072 4.479-29.852 8.946 0.882-3.581 1.751-6.262 1.751-9.844-5.264 0-22.823 3.581-29.852 4.479-7.017 0.898-5.264 3.581-6.137 10.732-0.882 5.364-1.762 10.741-2.633 15.209l-12.291 58.153zM264.894 344.869h-34.235c-0.882 8.946-20.191 96.611-23.706 104.658-3.514 8.946-11.411 17.891-22.823 19.689-34.246 3.569-21.072-34.898-16.688-56.358 5.277-21.473 11.423-46.526 17.557-67.988h-40.381c-1.751 4.467-20.191 86.767-21.061 95.713-2.643 18.79-5.277 34.898 7.898 44.73 12.292 8.059 32.483 9.844 48.279 8.059 38.629-2.694 52.673-21.473 61.454-54.574l23.706-93.929zM430.814 553.3l-5.264 18.789c14.045 0 17.557 0.898 29.839-4.478 5.277-2.683 3.514-2.683 6.146-4.467 5.264-3.581 36.878-0.898 45.658-1.786l5.264-19.689h-30.732l4.396-10.732c-35.998 0-28.97-4.479-38.629 15.209-5.264 8.049-5.264 6.265-16.677 7.151v0zM506.311 575.671h-77.261l-5.264 18.779h17.557l-5.264 16.107h-17.557l-5.264 19.677h16.677c-0.882 6.263-4.384 16.107-6.146 22.371-7.017 21.462-5.264 25.94 20.191 25.94 8.779 0 18.438 0 27.219 0l7.017-21.473c-35.106 3.581-26.327 6.263-19.31-26.838h31.603l6.146-19.677h-31.603l4.385-16.107h31.613l5.262-18.779zM568.637 640.079c27.219-0.898 31.603 0.898 36.878-26.838h-21.072c-1.751 4.479-1.751 8.048-4.396 11.629h-10.531v-10.732h-26.337c0 16.994-0.882 36.671-0.882 53.676 0 9.833 7.908 9.833 16.688 9.833 7.017 0.898 19.31 0.898 25.457 0l6.146-19.677c-6.146 0.898-15.806 1.786-21.072 0-1.751-4.478-1.751-12.527-0.881-17.891v0zM538.795 581.936l44.766 0.887-2.633 8.946h-43.895l1.761-9.834zM548.445 552.415h44.777l-3.514 10.732c-21.072-0.898-33.354 0-47.409 10.732l6.146-21.463zM552.841 530.942h-26.337c-5.264 13.414-9.66 31.306-13.174 46.514-3.503 10.732-27.207 87.665-27.207 92.143 0 3.581 4.385 7.162 7.017 8.048 5.276 1.795 35.998 0.898 42.144 0.898 0.882-3.581 1.751-7.162 3.514-10.732l2.633-10.741c-7.028 0-15.806 2.683-21.952 0-1.751-7.15 10.542-37.569 12.292-47.412 16.677-0.887 51.794 1.795 63.204-2.683 6.146-2.683 7.908-4.467 11.411-9.844 4.396-7.15 18.438-55.461 20.191-65.294-5.264-0.898-36.867-0.898-43.884 0-23.706 2.683-22.834 8.048-32.483 12.516l2.633-13.414zM652.042 651.708c0.87-3.581 5.264-20.576 7.017-22.359h22.823l-7.017 22.359h-22.823zM662.573 615.923c3.514-0.898 7.028-3.581 11.411-4.467 4.396-1.795 9.66-1.795 13.174-3.581l6.137-17.891h-22.823l-7.898 25.939zM681.883 551.516h22.834l-6.146 17.891c-3.514 1.786-8.779 1.786-13.174 2.683-3.514 1.786-7.017 3.581-11.411 4.467l7.898-25.041zM687.157 530.942h-28.098l-35.987 121.664c-7.908 0.887-6.146-0.898-7.908 8.048-1.751 2.683-3.503 8.048-3.503 11.629h57.058l-1.751 6.263h28.089l1.751-6.263h7.908l-1.762 6.263c14.045 0 28.97 1.786 38.629-6.263 2.633-1.786 17.557-22.359 19.31-25.94 1.762 2.683 2.633 9.844 2.633 14.311 0.882 5.364 0.882 8.946 4.396 11.629 6.146 7.162 16.677 5.364 27.207 5.364l6.146-20.576c-19.31 0-8.779-3.581-15.796-27.726h-12.292c0.882-1.795 3.514-5.377 5.264-7.162h33.365l5.264-16.994h-30.732l4.396-15.209h30.721l5.276-19.677h-91.305l-5.264 19.677h32.483l-4.396 15.209h-33.354l-5.276 16.994h28.97c-1.751 3.581-5.264 8.048-7.899 11.629-14.045 19.677-12.292 25.94-32.483 25.94l2.633-8.048-7.898-0.898 28.97-99.294c15.806 0 7.898 0 13.174-8.048 0.87 10.732-1.762 16.096 7.898 20.575 6.146 1.786 20.191 0.887 27.219 0.887 2.633-0.887 6.137-16.096 7.017-18.779-4.384-0.898-14.926 3.569-11.411-14.311-13.163-0.898-59.692-0.898-73.746 1.786-7.898 0.898-11.411 4.467-17.557 7.15l2.642-9.833zM792.496 546.15c-0.87 4.467-4.385 14.311-4.385 18.779 32.483 0 31.603 1.795 46.527-23.259 20.191-35.785 41.263-77.831 62.324-112.718 2.633-4.467 12.292-19.677 12.292-23.259l-29.852 4.479c-4.385 0.887-3.503 2.683-6.146 6.262 0 2.683-14.045 30.409-15.796 32.204l-2.633-42.945c-5.264-0.898-16.677 2.683-23.703 3.581-14.045 2.683-9.66 1.786-7.899 16.096l7.899 61.735c0.882 7.15 0.882 7.15-1.751 12.516-3.514 5.377-7.028 11.629-10.542 17.005l-15.796 25.94c-2.631 3.581-5.276 2.683-10.541 3.581v0zM756.509 428.067c6.146-1.795 9.649 1.786 11.411 6.252 0.87 6.262 0 11.639-1.762 17.005-2.633 11.629-3.503 21.462-14.045 25.042-14.926 5.364-11.411-14.311-9.649-24.156 2.635-9.834 5.267-21.462 14.046-24.145v0zM755.629 489.792c0 0 0 0 0 0.887v0 0.898l0.882 2.683h33.354c3.514-11.629 6.146-30.418 8.779-43.831 2.633-12.527 8.779-32.204 9.66-42.934-3.514 0-32.483 3.569-35.117 6.252l-1.751 1.795c0 0 0 0 0 0.898-1.762-5.377-9.66-9.844-17.557-8.946-7.028 0.887-14.055 3.569-19.321 7.15-6.146 4.479-9.649 7.162-13.163 13.425-9.66 12.516-20.191 45.617-5.264 60.827 9.648 8.947 29.839 9.846 39.5 0.9v0zM658.189 366.333c7.017 0 24.575 0.898 28.97 3.581 7.017 4.479 7.898 15.209 4.385 25.054-6.146 17.891-21.072 23.259-43.895 21.473l10.541-50.107zM594.102 493.373h35.987c5.264-10.741 7.028-42.945 13.174-52.789 5.264-4.467 75.498 12.527 87.779-56.358 9.66-53.665-54.426-36.672-102.705-40.253-4.396 17.891-11.411 53.676-16.677 75.149-2.643 12.516-6.146 24.144-8.779 36.671-2.644 11.629-7.029 25.94-8.78 37.58v0zM509.825 410.175l-7.028 42.934c-2.633 10.732-8.779 30.418-8.779 40.262 2.633 0.887 29.852 0 31.603-0.898 2.633-4.479 5.264-25.054 7.028-33.102 1.751-5.364 2.633-10.732 3.514-16.994 1.751-7.162 0.87-9.844 8.779-11.629 8.769-1.795 9.649 3.569 8.769 11.629-0.87 5.364-2.633 11.629-3.503 16.994-1.762 10.732-6.146 24.156-7.028 34.886l31.603-0.887c0.882-2.694 12.292-56.358 13.174-63.521 1.751-13.414-2.633-22.359-14.045-24.156-13.174-1.786-21.952 4.479-30.732 8.946 2.633-13.414 2.633-10.732-11.411-8.048-6.146 1.785-15.806 1.785-21.942 3.58v0zM451.887 425.374c13.164-2.683 7.898 18.79 6.137 25.951-7.898 33.102-22.823 26.838-22.823 14.311 0-8.946 5.264-37.569 16.688-40.262v0zM452.756 406.595c-26.337 0.898-41.263 17.891-46.527 42.048-8.779 33.090 3.514 49.198 37.749 46.514 27.219-2.683 39.511-17.891 45.658-42.945 8.779-32.204-4.396-47.413-36.879-45.617v0zM347.407 493.373h34.246c0-0.898 14.926-66.203 14.926-69.783-7.908 0.898-16.688 2.683-25.467 4.479-1.751 0-3.503 0-5.264 0-7.017 1.786-4.385 0.887-7.017 16.994-0.882 8.946-2.643 16.994-4.396 25.042-1.75 7.161-6.145 16.107-7.027 23.267v0zM383.405 396.751c-26.337 4.479-28.089 28.623-1.751 25.054 23.703-3.581 26.336-28.634 1.751-25.054v0z" p-id="1110" fill="#FF8100"></path></svg>