<?xml version="1.0" standalone="no"?><!DOCTYPE svg PUBLIC "-//W3C//DTD SVG 1.1//EN" "http://www.w3.org/Graphics/SVG/1.1/DTD/svg11.dtd"><svg t="1500544893834" class="icon" style="" viewBox="0 0 1024 1024" version="1.1" xmlns="http://www.w3.org/2000/svg" p-id="834" xmlns:xlink="http://www.w3.org/1999/xlink" width="64" height="64"><defs><style type="text/css">html, * { user-select: text !important; }
</style></defs><path d="M958.482821 512l-204.507744-88.113827c-7.701402-3.587712-11.038404-12.751419-7.444553-20.457938l13.008268-27.906583c3.597945-7.705496 12.756535-11.041474 20.463054-7.448646l104.866373 48.897663C842.502319 250.443959 691.953512 127.099746 512 127.099746c-138.756227 0-260.023128 73.463152-327.907215 183.310979l-60.540841-18.054191C200.25079 157.01815 345.326956 65.517179 512 65.517179 806.737768 65.517179 958.482821 307.521932 958.482821 512L958.482821 512 958.482821 512zM270.019807 600.10871c7.711636 3.597945 11.04352 12.756535 7.453762 20.462031l-13.013385 27.906583c-3.598968 7.706519-12.760628 11.04352-20.467147 7.453762L139.130757 607.018074C181.497681 773.550924 332.046488 896.898207 512 896.898207c138.751111 0 260.023128-73.462129 327.902098-183.314049l60.550051 18.058284C823.748187 866.986967 678.673044 958.482821 512 958.482821c-276.887214 0-446.482821-224.511333-446.482821-446.482821L270.019807 600.10871 270.019807 600.10871 270.019807 600.10871zM270.019807 600.10871M475.011574 663.749146 337.545736 663.749146c-2.006703-5.966898-2.993171-14.43885-2.993171-25.397437 0-4.480035 0.246617-8.966209 0.740874-13.450337 0.494257-4.481058 1.25048-8.714476 2.24718-12.701277l137.470955 0 0-65.751516-137.470955 0c-2.001587-5.966898-2.988054-14.43885-2.988054-25.397437 0-4.485151 0.2415-8.971325 0.740874-13.450337 0.494257-4.481058 1.25048-8.714476 2.24718-12.701277l107.58939 0L307.652915 252.818029c6.466272-0.99363 13.557784-1.739621 21.288862-2.233877 7.720845-0.493234 15.065114-0.751107 22.050202-0.751107 6.959505 0 14.182001 0.257873 21.656229 0.751107 7.474228 0.494257 14.192234 1.240247 20.175505 2.233877l122.531708 225.641063 120.3009-225.641063c6.465249-0.99363 13.068643-1.739621 19.791765-2.233877 6.723122-0.493234 13.57211-0.751107 20.552082-0.751107 6.960529 0 13.930267 0.257873 20.916379 0.751107 6.970762 0.494257 13.447267 1.240247 19.429515 2.233877L581.107961 494.89339l113.566522 0c1.49198 6.985088 2.242064 14.94334 2.242064 23.909549 0 10.961656-0.751107 20.175505-2.242064 27.644617L551.225373 546.447557l0 65.751516 143.44911 0c1.49198 6.979972 2.242064 14.94334 2.242064 23.909549 0 10.961656-0.751107 20.175505-2.242064 27.6395L551.225373 663.748123l0 117.305683c-5.977132 0.99363-12.20702 1.749854-18.682501 2.242064-6.476505 0.499373-12.95301 0.74599-19.429515 0.74599-6.475482 0-12.95301-0.246617-19.428491-0.74599-6.476505-0.493234-12.706393-1.249457-18.678408-2.242064L475.006458 663.749146 475.011574 663.749146 475.011574 663.749146zM475.011574 663.749146" p-id="835" fill="#FF8100"></path></svg>