<?xml version="1.0" standalone="no"?><!DOCTYPE svg PUBLIC "-//W3C//DTD SVG 1.1//EN" "http://www.w3.org/Graphics/SVG/1.1/DTD/svg11.dtd"><svg t="1500545066727" class="icon" style="" viewBox="0 0 1024 1024" version="1.1" xmlns="http://www.w3.org/2000/svg" p-id="1323" xmlns:xlink="http://www.w3.org/1999/xlink" width="64" height="64"><defs><style type="text/css">html, * { user-select: text !important; }
</style></defs><path d="M512 256a157.544296 157.544296 0 1 0 0.018963 315.107556A157.544296 157.544296 0 0 0 512 256z m0 236.297481a78.772148 78.772148 0 1 1 0-157.544296 78.772148 78.772148 0 0 1 0 157.544296zM512 0C229.224296 0 0 229.224296 0 512c0 282.794667 229.224296 512 512 512s512-229.224296 512-512S794.775704 0 512 0z m196.342519 898.142815c-58.936889 30.037333-125.62963 47.066074-196.342519 47.066074s-137.386667-17.028741-196.342519-47.066074c-0.246519-3.982222-0.587852-7.945481-0.587851-12.003556 0-119.656296 77.293037-196.93037 196.93037-196.93037S708.93037 766.482963 708.93037 886.139259c0 4.058074-0.341333 8.021333-0.587851 12.003556z m76.477629-49.682963C766.407111 714.088296 651.45363 610.455704 512 610.455704s-254.407111 103.61363-272.820148 238.004148C141.330963 769.042963 78.772148 647.850667 78.772148 512 78.772148 272.725333 272.725333 78.753185 512 78.753185s433.227852 193.972148 433.227852 433.227852c0 135.86963-62.577778 257.061926-160.407704 336.478815z" p-id="1324" fill="#8a8a8a"></path></svg>