<?xml version="1.0" standalone="no"?><!DOCTYPE svg PUBLIC "-//W3C//DTD SVG 1.1//EN" "http://www.w3.org/Graphics/SVG/1.1/DTD/svg11.dtd"><svg t="1500616970589" class="icon" style="" viewBox="0 0 1172 1024" version="1.1" xmlns="http://www.w3.org/2000/svg" p-id="1346" xmlns:xlink="http://www.w3.org/1999/xlink" width="73.25" height="64"><defs><style type="text/css">html, * { user-select: text !important; }
</style></defs><path d="M651.854526 601.393528c-14.884429 14.188895-25.456547 23.091731-32.411887 28.79511 3.47767-18.501206 12.380506-55.086298 33.802956-127.143627 21.422449-71.500902 23.230838-83.881408 23.230838-90.002108 0-10.711225-4.451418-20.170488-12.2414-26.708508-17.388352-14.328002-48.270064-11.545865-85.411583 9.459263-20.726915 11.545865-42.705792 30.603499-67.327698 57.451114l-12.797827 14.188895 42.566685 32.829208 10.850331-10.711225c11.824079-11.406759 19.892274-18.918527 25.178333-23.926372-32.411887 106.694926-48.270064 173.048875-48.270064 202.678627 0 13.493361 3.894991 24.621906 11.824079 33.107422 7.929088 8.763729 19.19674 13.215147 31.994567 13.215147 12.519613 0 26.986722-4.868738 44.375073-14.745322 15.71907-8.902836 39.367228-28.37779 72.47465-59.398609l13.354254-12.797827-38.671694-37.55884L651.854526 601.393528 651.854526 601.393528zM651.854526 601.393528" p-id="1347" fill="#8a8a8a"></path><path d="M1056.516245 312.468678c-25.73476-60.928784-62.87628-115.875975-109.755276-162.615864C899.60376 102.83471 844.795676 65.832298 784.005999 39.958431c-126.448093-53.277909-272.37114-53.277909-398.95834 0C324.118874 65.832298 269.449897 102.83471 222.431794 149.852813c-47.018103 46.878996-84.159622 101.826187-109.755276 162.615864C85.96801 375.762277 72.335543 442.811761 72.335543 511.947847c0 69.136086 13.493361 136.046463 40.201869 199.340063 25.73476 60.928784 62.87628 115.736868 109.894382 162.754971 46.878996 46.878996 101.68708 84.020515 162.615864 109.755276 63.2936 26.847615 130.343084 40.201869 199.47917 40.201869 69.136086 0 136.18557-13.354254 199.47917-40.201869 60.928784-25.73476 115.736868-62.737173 162.615864-109.755276 47.018103-47.018103 84.020515-101.965294 109.755276-162.754971 26.708508-63.2936 40.201869-130.203977 40.201869-199.340063C1096.718114 442.811761 1083.224753 375.762277 1056.516245 312.468678L1056.516245 312.468678zM1031.477019 511.947847c0 246.497273-200.452918 446.811084-446.95019 446.811084C338.029556 958.898038 137.576638 758.44512 137.576638 511.947847 137.576638 265.450575 338.029556 65.136764 584.526829 65.136764 831.024101 65.136764 1031.477019 265.450575 1031.477019 511.947847L1031.477019 511.947847zM1031.477019 511.947847" p-id="1348" fill="#8a8a8a"></path><path d="M638.500272 247.227582c-9.737477 10.572118-14.606215 23.509051-14.606215 38.39348 0 12.2414 4.034098 22.952624 11.824079 31.159926 7.929088 8.346409 18.362099 12.797827 30.047072 12.797827 9.59837 0 23.787265-2.921243 36.724199-17.249245 10.154797-10.850331 15.301749-24.065479 15.301749-38.671694 0-11.963186-4.173204-22.396197-12.102293-30.603499C688.300511 225.387813 657.001478 227.196201 638.500272 247.227582L638.500272 247.227582zM638.500272 247.227582" p-id="1349" fill="#8a8a8a"></path></svg>