<?xml version="1.0" standalone="no"?><!DOCTYPE svg PUBLIC "-//W3C//DTD SVG 1.1//EN" "http://www.w3.org/Graphics/SVG/1.1/DTD/svg11.dtd"><svg t="1500616953196" class="icon" style="" viewBox="0 0 1028 1024" version="1.1" xmlns="http://www.w3.org/2000/svg" p-id="1185" xmlns:xlink="http://www.w3.org/1999/xlink" width="64.25" height="64"><defs><style type="text/css">html, * { user-select: text !important; }
</style></defs><path d="M516.374991 1024c-281.712653 0-510.898163-229.18551-510.898163-510.898163s229.18551-510.898163 510.898163-510.898163 510.898163 229.18551 510.898163 510.898163S798.085941 1024 516.374991 1024zM516.374991 30.58577c-266.058733 0-482.514364 216.457334-482.514364 482.514364s216.457334 482.514364 482.514364 482.514364 482.514364-216.457334 482.514364-482.514364S782.432022 30.58577 516.374991 30.58577z" p-id="1186" fill="#8a8a8a"></path><path d="M387.839825 657.82396c-2.251358 2.249655-5.200943 3.375334-8.152232 3.375334-2.949585 0-5.900874-1.125679-8.150529-3.375334-4.502716-4.502716-4.502716-11.798342 0-16.299354l138.296727-138.257558c4.502716-4.49931 11.801748-4.501013 16.30276 0.001703 4.502716 4.49931 4.502716 11.796639 0 16.297651L387.839825 657.82396zM670.872299 358.578985c-12.133831-12.130425-31.881748-12.132128-44.017283 0-12.135534 12.133831-12.135534 31.874936 0 44.007065 12.137237 12.130425 31.881748 12.130425 44.017283 0C683.007833 390.453921 683.007833 370.711113 670.872299 358.578985zM648.864509 434.721544c-13.874291 0-27.748582-5.277578-38.31055-15.837843-21.123936-21.12053-21.123936-55.48354 0-76.604071 21.125639-21.117124 55.497164-21.117124 76.622803 0 21.123936 21.118827 21.123936 55.48354 0 76.602368C676.613091 429.442263 662.7388 434.721544 648.864509 434.721544zM709.3259 320.137304c-24.46521-24.458398-56.994096-37.92908-91.59212-37.92908-34.599727 0-67.12691 13.470682-91.59212 37.92908-39.521379 39.509458-49.276128 99.603003-24.271069 149.53308 2.222407 4.438002 1.35388 9.799027-2.15599 13.308897l-215.616055 215.559856-0.063011 30.463154 54.896008-54.882384c4.504419-4.49931 11.801748-4.49931 16.304463 0 4.501013 4.501013 4.501013 11.798342 0 16.297651l-54.987969 54.970939 83.12824 0.095368 0-48.003991c0-6.365791 5.161774-11.52416 11.527566-11.52416l48.029536 0 0.001703-48.017615c0-6.365791 5.161774-11.52416 11.527566-11.52416l48.029536 0 0-48.017615c0-3.055171 1.214235-5.987726 3.377037-8.148826l40.567017-40.556799c3.50987-3.50987 8.872598-4.3801 13.312303-2.15599 49.947107 24.996544 110.057682 15.246904 149.577358-24.26596 24.46521-24.456695 37.939298-56.977066 37.939298-91.566575C747.266901 377.11437 733.791111 344.595702 709.3259 320.137304zM725.630364 519.568105c-29.349396 29.340881-68.347956 44.74957-107.899989 44.751273-20.505749 0.001703-41.15455-4.138275-60.696405-12.624294l-31.483248 31.474733 0 54.768283c0 6.364088-5.163477 11.52416-11.527566 11.52416l-48.029536 0-0.001703 48.017615c0 6.365791-5.161774 11.52416-11.527566 11.52416l-48.029536 0 0 48.017615c0 3.058577-1.215938 5.991132-3.382146 8.153935-2.161099 2.157693-5.093655 3.370225-8.147123 3.370225l-0.013624 0-122.455478-0.141348c-0.057902 0-0.134537-0.020436-0.175408-0.001703l-0.020436 0-0.001703 0c-2.879763-0.052793-5.742495-1.176769-7.939357-3.373631-2.169614-2.167911-3.29359-4.988069-3.371928-7.830366l0-0.005109 0-0.006812c-0.003406-0.110695-0.005109-0.219686-0.005109-0.330381l0.129428-63.126577c0.006812-3.048359 1.221047-5.968994 3.377037-8.124984l213.272735-213.219942c-24.858602-57.222297-12.428449-123.99839 32.135494-168.550413 28.821468-28.812953 67.138831-44.679747 107.896583-44.679747 40.757752 0 79.075115 15.866794 107.89488 44.679747C785.122752 363.315011 785.122752 460.092747 725.630364 519.568105z" p-id="1187" fill="#8a8a8a"></path></svg>