<?xml version="1.0" standalone="no"?><!DOCTYPE svg PUBLIC "-//W3C//DTD SVG 1.1//EN" "http://www.w3.org/Graphics/SVG/1.1/DTD/svg11.dtd"><svg t="1500629381141" class="icon" style="" viewBox="0 0 1593 1024" version="1.1" xmlns="http://www.w3.org/2000/svg" p-id="1971" xmlns:xlink="http://www.w3.org/1999/xlink" width="99.5625" height="64"><defs><style type="text/css">html, * { user-select: text !important; }
</style></defs><path d="M1478.893425 512.005566c-90.028486-139.876099-202.943683-244.480392-338.716649-313.810653 36.177924 61.676125 54.266886 128.34369 54.266886 200.029412 0 109.604639-38.951936 203.397855-116.846903 281.370743-77.894967 77.98402-171.697088 116.935956-281.379649 116.855808-109.68256-0.077922-203.475777-39.029858-281.370743-116.855808-77.903872-77.817045-116.855808-171.610261-116.855808-281.370743 0-71.685722 18.097867-138.353287 54.275791-200.029412C316.564628 267.522947 203.658336 372.12724 113.543023 512.005566c78.816669 121.506619 177.610231 218.267538 296.398496 290.249362 118.786039 71.979598 247.539375 107.974962 386.277818 107.974962 138.736216 0 267.489552-35.995365 386.277818-107.974962C1301.2921 730.273104 1400.085662 633.512185 1478.893425 512.005566L1478.893425 512.005566 1478.893425 512.005566zM838.893703 170.661843c0-11.828511-4.138755-21.91603-12.400679-30.264782-8.27083-8.339846-18.358348-12.471922-30.264782-12.402906-74.112426 0-137.676482 26.517862-190.701073 79.531322-53.022366 53.024592-79.529096 116.586422-79.529096 190.698847 0 11.828511 4.138755 21.91603 12.400679 30.264782 8.27083 8.339846 18.358348 12.480827 30.264782 12.400679 11.904207-0.077922 21.993952-4.216676 30.264782-12.400679 8.268604-8.192908 12.400679-18.280427 12.400679-30.264782 0-50.978591 18.097867-94.514548 54.275791-130.623456 36.177924-36.106681 79.72056-54.195643 130.623456-54.266886 11.828511 0 21.91603-4.138755 30.264782-12.400679C834.830644 192.662473 838.96272 182.574955 838.893703 170.661843L838.893703 170.661843zM1592.681345 512.005566c0 20.175037-5.922048 40.610555-17.750559 61.319912-82.982139 136.309513-194.525915 245.495601-334.6291 327.576075-140.103185 82.069342-288.08314 123.107353-443.962126 123.098448-155.878987 0-303.867846-41.187175-443.971032-123.561525-140.092054-82.365445-251.635829-191.402369-334.617969-327.104092C5.913143 552.61612 0 532.178376 0 512.005566c0-20.177263 5.913143-40.623913 17.750559-61.328817 82.982139-135.701723 194.525915-244.740873 334.626874-327.115224 140.09428-82.37435 288.085366-123.561525 443.964353-123.561525s303.867846 41.187175 443.971032 123.561525c140.09428 82.37435 251.635829 191.4135 334.620195 327.115224C1586.759297 471.381653 1592.681345 491.826076 1592.681345 512.005566L1592.681345 512.005566zM1592.681345 512.005566" p-id="1972" fill="#2c2c2c"></path></svg>